<svg xmlns="http://www.w3.org/2000/svg" viewBox="0 0 760 190">
  <defs>
    <linearGradient id="markGrad" x1="70" y1="105" x2="220" y2="105" gradientUnits="userSpaceOnUse">
      <stop offset="0%" stop-color="#00a8ff"/>
      <stop offset="47%" stop-color="#2a43ff"/>
      <stop offset="100%" stop-color="#ff341e"/>
    </linearGradient>
    <linearGradient id="textGrad" x1="250" y1="98" x2="720" y2="98" gradientUnits="userSpaceOnUse">
      <stop offset="0%" stop-color="#071338"/>
      <stop offset="55%" stop-color="#172158"/>
      <stop offset="100%" stop-color="#ff3b25"/>
    </linearGradient>
    <filter id="brandGlow" x="-25%" y="-60%" width="150%" height="220%">
      <feGaussianBlur stdDeviation="10" result="blur"/>
      <feColorMatrix in="blur" type="matrix" values="0 0 0 0 0.15  0 0 0 0 0.25  0 0 0 0 1  0 0 0 .9 0"/>
      <feBlend in="SourceGraphic"/>
    </filter>
    <filter id="redGlow" x="-30%" y="-70%" width="160%" height="240%">
      <feGaussianBlur stdDeviation="12" result="blur"/>
      <feColorMatrix in="blur" type="matrix" values="1 0 0 0 1  0 0 0 0 .1  0 0 0 0 0  0 0 0 .65 0"/>
      <feBlend in="SourceGraphic"/>
    </filter>
  </defs>
  <g opacity=".98">
    <g filter="url(#brandGlow)">
      <path d="M81 105a55 55 0 0 1 94-39 54 54 0 0 1 16 39 13 13 0 0 1-26 0 29 29 0 0 0-58-1 13 13 0 0 1-26 1Z" fill="url(#markGrad)"/>
      <path d="M126 41 93 106h30l-13 43 53-71h-32l16-37Z" fill="#15214f" stroke="#0b1028" stroke-width="2" opacity=".9"/>
      <path d="M87 117c15 0 23 7 26 18M116 112c-4 18 8 25 26 25" fill="none" stroke="#11152f" stroke-width="8" stroke-linecap="round"/>
      <path d="M179 117c-15 0-23 7-26 18M150 112c4 18-8 25-26 25" fill="none" stroke="#11152f" stroke-width="8" stroke-linecap="round"/>
      <path d="M91 126c-12 8-8 27 7 31 12 4 22-2 28-11 7 10 22 13 32 3 10-10 5-28-9-31-10-3-17 2-24 8-8-8-21-9-34 0Z" fill="url(#markGrad)" opacity=".9"/>
    </g>
    <g filter="url(#redGlow)">
      <text x="238" y="128" font-family="Inter, Segoe UI, Arial, sans-serif" font-size="88" font-weight="800" letter-spacing="-4" fill="url(#textGrad)" stroke="#071126" stroke-width="1.2">Energy</text>
      <text x="525" y="128" font-family="Inter, Segoe UI, Arial, sans-serif" font-size="88" font-weight="800" letter-spacing="-4" fill="#ff3b25" stroke="#7f1d1d" stroke-width="1">Mind</text>
    </g>
  </g>
</svg>
